<svg width="398" height="398" viewBox="0 0 398 398" fill="none" xmlns="http://www.w3.org/2000/svg">
<path d="M0 52.3926V126.631H75.9944C50.6884 101.91 25.3442 77.1511 0 52.3926ZM397.556 345.126V270.888H321.562C346.906 295.646 372.25 320.405 397.556 345.126ZM125.88 0H47.1716C45.7572 0 44.381 0.0746865 42.9666 0.224059C70.6044 27.522 98.2422 54.8572 125.842 82.1551V0H125.88ZM350.423 0H193.273V191.16H0V351.475C0 376.905 21.1011 397.556 47.1716 397.556H204.321V206.396H397.556V46.0816C397.556 20.6508 376.455 0 350.385 0H350.423ZM271.714 397.519H350.423C352.334 397.519 354.245 397.369 356.119 397.145C327.984 369.885 299.849 342.624 271.753 315.364V397.519H271.714Z" fill="white"/>
</svg>
